<svg xmlns="http://www.w3.org/2000/svg" width="32" height="32" viewBox="0 0 32 32" fill="none">
  <!-- Mickey mouse style glove hand pointer -->
  <g filter="url(#shadow)">
    <!-- Hand/glove body -->
    <path d="M15 6C15 4.34 16.34 3 18 3C19.66 3 21 4.34 21 6V14H15V6Z" fill="white" stroke="#1A1A1A" stroke-width="1.5"/>
    <!-- Index finger (pointing) -->
    <path d="M11 9C11 7.34 12.34 6 14 6C15.66 6 17 7.34 17 9V14H11V9Z" fill="white" stroke="#1A1A1A" stroke-width="1.5"/>
    <!-- Ring finger -->
    <path d="M19 8C19 6.34 20.34 5 22 5C23.66 5 25 6.34 25 8V14H19V8Z" fill="white" stroke="#1A1A1A" stroke-width="1.5"/>
    <!-- Palm -->
    <path d="M8 16C8 14.34 9.34 13 11 13H25C26.66 13 28 14.34 28 16V22C28 25.87 24.87 29 21 29H15C11.13 29 8 25.87 8 22V16Z" fill="white" stroke="#1A1A1A" stroke-width="1.5"/>
    <!-- Thumb -->
    <path d="M8 18C6.34 18 5 16.66 5 15C5 13.34 6.34 12 8 12V18Z" fill="white" stroke="#1A1A1A" stroke-width="1.5"/>
    <!-- Wrist line -->
    <path d="M12 21H24" stroke="#1A1A1A" stroke-width="1" stroke-linecap="round" opacity="0.3"/>
  </g>
  <defs>
    <filter id="shadow" x="0" y="0" width="36" height="36" filterUnits="userSpaceOnUse">
      <feDropShadow dx="1" dy="1" stdDeviation="1" flood-opacity="0.15"/>
    </filter>
  </defs>
</svg>
