<svg width="2000" height="321" viewBox="0 0 2000 321" fill="none" xmlns="http://www.w3.org/2000/svg">
<path d="M123.736 33.4947C126.604 32.9491 133.855 33.3194 136.746 33.6522C154.094 35.7436 169.889 44.6689 180.622 58.4459C191.565 72.2071 196.61 89.737 194.656 107.204C192.792 122.986 186.346 133.013 174.21 142.613C199.957 155.42 209.13 172.163 212.496 200.211C214.421 163.47 233.738 140.218 253.165 110.633L300.487 38.4296C317.413 38.1089 335.307 38.4157 352.309 38.4296L298.279 121.185C359.331 114.447 395.581 174.829 377.629 229.268C370.612 251.014 355.15 269.034 334.714 279.288C311.935 290.678 289.922 290.014 266.379 282.204C232.118 266.835 216.901 243.267 212.699 206.477C211.563 225.663 207.884 240.316 195.785 255.984C182.138 273.335 162.154 284.561 140.226 287.196C101.544 292.181 65.0488 271.516 51.2024 234.791C47.8542 225.909 46.8895 218.434 45.7086 209.141L90.0501 209.019C94.2791 242.867 132.433 258.651 156.515 234.753C164.159 227.223 168.444 216.932 168.4 206.206C168.42 173.169 139.616 165.802 112.448 165.903L112.503 124.119C122.71 124.236 130.227 124.254 139.522 119.318C151.321 113.053 154.631 96.9767 148.015 85.6838C144.978 80.4855 139.974 76.7284 134.131 75.2605C117.913 71.105 110.685 84.4869 107.433 97.5605L63.0882 97.5293C68.7104 59.4772 84.3856 39.2065 123.736 33.4947ZM304.02 244.611C326.655 240.971 342.079 219.724 338.513 197.098C334.946 174.471 313.734 158.989 291.075 162.475C268.306 165.977 252.718 187.295 256.302 210.032C259.885 232.768 281.276 248.269 304.02 244.611Z" fill="#330362"/>
<path d="M1218.2 37.0341L1261.88 37.0466C1263.1 117.594 1261.91 201.221 1261.91 282.023L1232.32 282.003L1232.47 108.789L1232.81 75.2844C1210.5 142.223 1189.43 214.318 1168.35 282.029L1137.5 282.015C1130.86 258.453 1122.06 232.178 1114.7 208.556L1073.26 75.9371C1072.63 143.721 1073.75 213.934 1073.7 282.024L1044 282.016L1043.98 37.0554L1088.15 37.0527L1153.28 244.55C1175.62 176.478 1196.61 105.573 1218.2 37.0341Z" fill="black"/>
<path d="M1466.18 37.0341L1509.88 37.0464C1511.04 118.641 1509.92 200.41 1509.92 282.023L1480.34 282.003L1480.49 111.472C1480.53 99.4183 1480.63 87.3658 1480.8 75.3137C1458.72 143.436 1437.69 213.537 1416.38 282.029L1385.51 282.015C1379.63 260.365 1370.72 234.318 1363.96 212.606L1321.29 75.9118C1320.73 143.927 1321.71 213.8 1321.67 282.024L1292.02 282.009L1292 37.0555L1336.16 37.0526L1401.3 244.542L1466.18 37.0341Z" fill="black"/>
<path d="M459.693 33.5383C474.237 32.2106 488.874 34.7372 502.129 40.8632C524.219 50.9553 536.431 66.3366 544.661 88.5215L525.606 100.102C509.402 92.6147 481.508 76.2999 465.567 75.0148C457.04 74.3273 445.458 80.1422 439.005 86.3411C421.874 102.795 429.477 147.636 427.956 171.097C428.486 192.158 424.165 219.917 440.288 236.236C453.342 249.448 479.769 248.952 492.241 236.505C508.786 219.993 504.13 177.779 504.01 155.139C510.996 164.891 517.903 175.022 524.782 184.877L526.388 184.87C533.683 175.471 541.126 164.534 548.068 154.762C550.398 213.403 552.809 275.398 478.094 287.197C443.896 292.599 408.369 275.229 392.031 244.373C379.967 221.587 385.053 189.849 383.915 164.818C383.946 145.06 382.09 113.948 386.062 94.9236C388.421 83.3605 393.418 72.4969 400.664 63.1777C415.71 44.0066 436.397 36.3349 459.693 33.5383Z" fill="#330362"/>
<path d="M1853.83 30.6391C1854.13 30.5853 1854.42 30.5418 1854.73 30.5087C1875.9 28.2563 1908.84 34.5484 1924.7 48.6635C1944.74 66.4985 1947.87 84.2403 1950.29 108.795L1921.2 108.877C1919.11 75.3653 1895.87 58.1066 1863.13 59.0965C1848.3 59.5453 1833.12 62.2747 1822.72 73.3365C1811.61 85.3868 1807.97 111.813 1821.37 123.563C1827.57 129.342 1834.75 131.108 1842.54 133.556C1871.63 142.686 1915.28 145.061 1938.04 166.16C1963.35 189.635 1961.92 239.68 1938.33 263.644C1919.7 282.569 1892.74 288.269 1867.01 288.71C1866.57 288.719 1866.13 288.726 1865.68 288.728C1810.47 288.978 1775.57 259.256 1775.44 202.831L1804.36 202.815C1804.47 205.635 1804.65 208.451 1804.88 211.263C1806.17 225.243 1812.12 237.878 1822.87 246.634C1852.27 270.515 1934.09 264.989 1925.99 212.211C1924.97 197.861 1916.6 189.875 1904.35 184.076C1864.47 165.077 1787.59 172.952 1783.34 113.72C1779.9 65.8377 1806.46 35.0525 1853.83 30.6391Z" fill="black"/>
<path d="M706.726 30.6499C707.498 30.5858 708.271 30.5323 709.045 30.4894C764.1 27.392 799.755 51.1114 802.999 108.787L774.168 108.857C770.689 74.0688 750.593 58.9106 715.781 59.0543C687.276 59.172 665.168 72.4439 665.574 103.592C665.936 131.4 698.331 133.636 718.681 139.164C761.38 149.522 806.452 154.267 809.268 209.381C812.118 265.183 770.871 287.356 721.177 288.711C720.657 288.725 720.138 288.735 719.618 288.739C663.794 289.214 628.873 260.062 628.539 202.816L657.182 202.814C657.216 204.311 657.307 205.806 657.452 207.297C661.224 249.582 691.701 262.19 730.072 259.782C757.635 258.052 783.687 242.623 779.242 212.246C772.252 164.473 684.123 178.101 654.78 149.983C643.413 139.091 637.61 130.081 636.355 114.237C633.069 65.455 659.353 35.0961 706.726 30.6499Z" fill="black"/>
<path d="M981.357 37.0454L1011.88 37.0199L1011.93 66.8343L1012.01 156.083C1012.02 194.441 1016.61 234.625 986.797 264.387C966.287 284.413 939.653 289.832 912.213 288.346C862.574 285.658 833.269 250.19 833.006 201.634C832.917 185.145 832.978 168.289 832.98 151.781L833.01 37.0556L863.625 37.0403C863.847 47.6183 863.696 58.3337 863.696 68.9293C863.698 104.036 863.769 139.195 863.644 174.295C863.557 198.43 863.223 225.788 881.448 244.266C901.474 264.57 943.693 263.802 963.679 243.636C977.012 230.222 981.035 210.166 981.309 191.86C981.533 176.249 981.328 160.54 981.328 144.915L981.357 37.0454Z" fill="black"/>
<path d="M1587.26 37.0743C1648.75 36.0716 1710.44 37.05 1771.96 37.0452C1772.16 46.8668 1772.01 56.7181 1772.02 66.5431C1746.38 66.4212 1720.74 66.4806 1695.11 66.7211V204.406L1695.09 282.02L1664.21 282.002L1664.17 66.5887C1638.54 66.2675 1612.84 66.5683 1587.21 66.5646L1587.26 37.0743Z" fill="black"/>
<path d="M1545.85 37.079L1576.38 37.0471L1576.37 282.01L1545.88 282.001C1545.05 200.394 1545.86 118.696 1545.85 37.079Z" fill="black"/>
<path d="M593.649 34.9288C600.869 35.9901 603.601 37.6838 603.672 45.2284C603.841 62.9888 603.78 80.7496 603.77 98.5109L603.792 197.033L603.799 253.539C603.796 262.855 604.07 273.079 603.329 282.355C603.146 284.644 599.738 286.874 597.821 288.319C591.104 287.317 588.024 285.956 587.947 278.55C587.775 261.987 587.853 245.423 587.866 228.857L587.834 137.257L587.816 74.6754C587.816 63.9173 587.62 52.7113 588.122 41.9593C588.263 38.945 591.285 36.8754 593.649 34.9288Z" fill="black"/>
<path d="M525.509 115.554C540.582 107.938 555.925 100.785 571.137 93.4434L549.388 132.089L525.564 173.696C510.681 147.594 497.001 120.638 482.848 94.1232C497.228 99.0953 511.957 108.519 525.509 115.554Z" fill="#040ECF"/>
</svg>
