<svg width="900" height="637" viewBox="0 0 900 637" fill="none" xmlns="http://www.w3.org/2000/svg">
<path d="M439.311 19.7804L526.021 19.7729C514.547 38.0493 502.115 56.5617 490.285 74.6924L435.008 159.259C446.585 156.846 460.648 157.196 472.272 159.203C523.604 168.066 563.322 211.107 573.671 261.369C581.722 300.859 573.895 341.93 551.887 375.695C531.127 406.859 498.955 428.628 462.296 436.316C425.202 443.681 386.697 436.193 355.068 415.465C323.833 394.445 302.118 361.988 294.613 325.102C292.96 316.998 292.297 309.859 291.757 301.639C291.999 300.172 291.77 285.907 291.649 283.891C295.525 237.274 313.923 210.775 338.66 173.094L378.618 112.125L418.801 50.8128C424.207 42.5659 433.577 27.2256 439.311 19.7804ZM442.31 366.757C480.722 362.144 508.122 327.269 503.499 288.868C498.876 250.466 463.988 223.084 425.573 227.712C387.171 232.339 359.788 267.207 364.409 305.598C369.03 343.989 403.904 371.368 442.31 366.757Z" fill="#330362"/>
<path d="M711.598 11.1706C734.339 9.20448 762.486 15.66 782.67 25.8196C816.666 42.9283 837.778 68.192 849.836 103.916C839.54 110.202 828.365 117.351 817.954 123.262C799.128 114.304 779.902 105.801 761.106 96.853C753.926 93.4338 750.753 89.0214 740.936 85.2082C734.366 82.7213 727.418 81.3656 720.395 81.1977C679.403 80.1539 653.533 111.358 653.845 150.897C654.078 180.108 653.814 209.594 653.801 238.827L653.788 277.396C653.788 304.526 653.423 330.335 673.651 351.454C695.624 374.392 739.332 374.508 761.818 352.347C784.907 329.587 781.906 297.694 781.906 267.926L781.945 215.787C784.503 220.466 817.4 267.3 818.433 267.629L819.286 266.457C830.632 249.525 844.088 231.412 856.041 214.712C855.549 235.691 855.532 259.347 855.958 280.298C856.846 323.654 853.321 359.652 823.566 393.979C799.739 421.465 765.677 436.043 729.707 438.676C687.968 441.41 655.813 431.296 624.45 404.24C580.772 366.568 579.612 330.925 579.599 276.978V227.982L579.586 174.109C579.586 152.488 578.769 132.387 583.699 111.116C588.41 91.0176 597.955 72.3711 611.503 56.7918C636.961 27.7774 673.712 13.715 711.598 11.1706Z" fill="#330362"/>
<path d="M40.2617 119.048C43.2766 70.6868 69.082 29.982 117.46 15.9335C135.103 10.8101 153.584 9.44676 171.676 12.9594C200.678 18.826 226.184 35.9156 242.635 60.5032C270.367 101.701 270.352 165.122 225.982 194.852C239.948 200.767 252.563 208.299 262.461 219.992C278.734 239.215 288.167 261.733 290.183 286.799C290.413 290.009 290.589 293.61 290.996 296.773C290.83 299.705 290.925 302.905 290.952 305.862C290.41 338.218 278.082 369.268 256.28 393.189C205.106 449.902 112.641 454.809 55.9353 403.36C28.5797 378.433 12.3761 343.573 10.958 306.597L85.1264 306.639C85.6507 322.822 94.3958 340.028 106.28 350.769C134.223 376.025 174.288 374.45 199.993 346.64C223.682 321.012 222.612 277.121 196.524 253.681C176.717 235.884 148.639 232.644 123.055 234.174L123.052 163.565C138.224 164.679 156.953 163.682 169.915 155.015C178.608 149.291 184.619 140.298 186.582 130.079C188.629 119.746 187.621 103.913 181.525 95.2592C171.092 80.6117 146.346 76.5015 131.685 86.8798C120.805 94.5822 116.608 106.476 114.426 119.012C95.5054 118.58 76.4327 119.101 57.4985 118.897C51.7979 118.835 45.9536 118.846 40.2617 119.048Z" fill="#330362"/>
<path d="M547.95 456.272C557.354 456.228 566.758 456.246 576.167 456.334C576.672 508.251 576.558 562.115 576.132 614.055C569.799 614.121 563.379 614.059 557.042 614.055L557.02 542.302C557.016 529.668 556.607 514.731 557.249 502.329L557.253 481.682C552.784 493.877 548.029 510.975 544.043 523.79L515.9 614.064C509.212 614.116 502.528 614.108 495.839 614.033C493.923 606.551 490.913 597.62 488.575 590.13L476.064 550.003L462.858 507.584C460.305 499.351 457.646 490.068 454.759 481.998L454.979 614.239C449.064 614.419 441.708 614.349 435.847 614.134L435.808 525.6C435.722 502.51 435.758 479.424 435.917 456.334C444.968 456.07 455.12 456.193 464.194 456.36C468.189 467.562 471.951 480.562 475.532 491.992L495.694 556.29C498.973 566.737 502.642 579.622 506.404 589.757C509.093 579.455 512.675 568.793 515.922 558.618C526.781 524.598 536.876 490.213 547.95 456.272Z" fill="black"/>
<path d="M387.956 456.272C397.364 456.224 406.771 456.241 416.179 456.334L416.151 614.042C409.882 614.169 403.299 614.059 397.006 614.055C397.354 588.764 396.747 563.099 397.005 537.786C397.116 526.83 396.555 513.273 397.261 502.527V481.453C392.764 494.782 388.51 509.442 384.31 522.942L355.905 614.064C349.221 614.108 342.536 614.099 335.852 614.033C333.763 606.152 330.834 597.379 328.388 589.533L315.505 548.207C309.052 527.511 301.778 501.71 294.651 481.664C294.913 485.917 294.72 491.549 294.779 495.929C294.992 506.995 295.067 518.066 295.003 529.136L294.976 614.244C289.072 614.406 281.698 614.362 275.854 614.13L275.812 524.857C275.81 502.237 275.515 478.91 275.93 456.334C285.025 456.079 295.095 456.202 304.212 456.364C308.275 467.94 312.116 481.093 315.818 492.889L336.342 558.324C339.546 568.538 342.846 579.74 346.388 589.779C347.908 583.883 349.862 577.785 351.735 571.965C364.102 533.551 375.328 494.589 387.956 456.272Z" fill="black"/>
<path d="M798.108 452.248C822.74 451.844 847.169 456.707 856.222 483.123C858.533 489.862 858.999 495.502 859.597 502.545C853.308 502.65 847.015 502.65 840.727 502.549C838.661 480.728 825.957 470.971 804.226 470.73C786.072 470.528 770.59 478.541 771.082 498.846C771.447 513.778 783.541 517.09 795.85 519.81C804.784 521.901 813.872 524.225 822.788 526.303C833.506 528.627 844.167 531.956 852.214 539.759C868.122 555.183 867.085 587.261 851.498 602.541C843.803 610.079 833.48 614.472 822.99 616.594C816.267 617.956 810.268 618.092 803.435 618.088C768.507 617.336 746.706 598.96 747.066 562.77C753.196 562.682 759.331 562.699 765.466 562.814L765.519 563.657C766.165 573.928 768.705 583.294 776.755 590.279C785.914 598.222 798.961 600.291 810.729 599.509C820.793 598.837 832.025 596.236 838.868 588.254C842.999 583.435 844.642 577.293 844.141 571.02C843.842 567.317 843.28 563.139 841.219 559.954C829.261 541.468 781.937 544.754 763.282 528.627C756.193 522.498 752.524 514.239 751.882 504.961C750.951 491.47 754.352 477.719 763.409 467.4C772.33 457.239 784.964 453.048 798.108 452.248Z" fill="black"/>
<path d="M60.1484 452.248C96.3549 451.673 119.017 462.976 121.51 502.545C115.237 502.633 108.964 502.641 102.691 502.575C101.354 481.071 87.0042 470.616 66.0296 470.712C56.8296 470.752 46.248 472.852 39.6417 479.696C31.801 487.823 29.7881 505.905 39.9031 513.185C45.4192 517.222 51.4345 518.105 57.7828 519.792C72.0844 523.592 86.9801 525.973 100.86 531.078C105.26 532.708 110.689 536.358 114.034 539.57C122.801 548 125.138 558.03 125.531 569.566C126.428 595.894 109.02 612.192 84.3693 616.721C77.4083 618 72.3691 618.092 65.1748 618.088C30.4598 617.029 8.59851 599.061 9.07628 562.761C15.2178 562.677 21.3602 562.695 27.501 562.822C27.9831 573.067 30.3144 582.758 38.2283 589.853C47.431 598.099 60.7118 600.269 72.6882 599.505C82.7218 598.863 93.9023 596.285 100.757 588.382C104.64 583.905 106.732 577.46 106.239 571.547C105.884 567.286 105.177 562.616 102.651 559.084C90.1652 541.617 44.0314 544.53 25.5529 528.851C18.2742 522.678 14.5579 514.388 13.8789 504.948C12.9073 491.435 16.4227 477.517 25.5469 467.237C34.4661 457.186 47.0729 453.021 60.1484 452.248Z" fill="black"/>
<path d="M817.708 149.485C842.81 136.586 869.199 125.102 894.309 112.348C890.925 119.427 884.773 129.538 880.761 136.624C873.461 149.502 866.087 162.749 858.599 175.493C856.503 179.443 854.125 183.655 851.832 187.488C840.151 207.022 829.718 228.015 817.673 247.228C813.608 238.419 805.834 224.959 801.092 216.102L765.615 149.814C759.643 138.672 751.302 124.068 745.998 112.814C749.817 114.171 765.343 122.401 769.966 124.831C785.329 132.905 802.714 140.951 817.708 149.485Z" fill="#040ECF"/>
<path d="M140.423 456.224C146.112 456.474 153.836 456.285 159.662 456.303C160.06 479.916 159.376 503.538 159.725 527.243C160.014 546.915 156.26 573.81 171.022 589.225C177.41 595.894 187.33 599.026 196.425 598.912C240.867 598.363 235.511 557.546 235.501 526.417L235.557 456.347C242.109 456.224 248.662 456.224 255.214 456.347L255.254 473.796L255.276 527.691C255.277 540.444 255.841 553.922 254.917 566.513C252.494 599.527 226.603 619.586 194.48 618.184C174.152 617.301 157.115 610.483 147.012 591.852C143.477 585.179 141.25 577.891 140.449 570.379C139.733 563.921 140.006 555.253 140.014 548.628L140.055 513.453C140.05 506.028 139.118 460.604 140.423 456.224Z" fill="black"/>
<path d="M625.808 456.088C639.088 455.71 653.691 456.004 667.05 456L744.961 456.026L744.978 475.272C728.855 475.681 711.567 475.25 695.241 475.404C694.903 504.935 695.228 535.146 695.224 564.733L695.166 614.046C688.685 614.156 682.009 614.055 675.51 614.033L675.466 475.404C659.061 474.96 642.283 475.615 625.808 475.184V456.088Z" fill="black"/>
<path d="M599.533 456.369C605.931 456.123 612.756 456.281 619.189 456.325L619.163 614.072L599.511 614.037C598.988 562.168 599.115 508.264 599.533 456.369Z" fill="black"/>
<path d="M291.305 286.363C291.285 285.084 291.281 285.117 291.649 283.891C291.77 285.907 291.999 300.172 291.757 301.639L290.952 305.861C290.925 302.905 290.83 299.705 290.996 296.773C291.485 293.758 291.321 289.507 291.305 286.363Z" fill="#330362" fill-opacity="0.447059"/>
<path d="M290.183 286.799L291.305 286.363C291.321 289.507 291.485 293.758 290.996 296.773C290.589 293.61 290.413 290.009 290.183 286.799Z" fill="#330362" fill-opacity="0.054902"/>
</svg>
